# xmcd CD database file
#
# Track frame offsets:
#	150
#	17357
#	35780
#	51782
#	69082
#	86892
#	95250
#	112420
#	130790
#	146805
#
# Disc length: 2192 seconds
#
# Revision: 0
# Processed by: cddbd v1.5.1PL0 Copyright (c) Steve Scherf et al.
# Submitted via: CDex 1.51
#
DISCID=89088e0a
DTITLE=並木のり子・他 - Fragile Hearts Series「こわれもの」 image album 01[微痛の楽園]
DYEAR=1900
DGENRE=アニメ
TTITLE0=並木のり子/OPEN SESAME
TTITLE1=畑亜貴/微痛の楽園
TTITLE2=畑亜貴/支配樹と鍵
TTITLE3=畑亜貴/微痛の楽園（置き去りVersion）
TTITLE4=並木のり子/HAPPY DAYS
TTITLE5=畑亜貴/Fragile Hearts
TTITLE6=剣持満/OPEN SESAME<instrumental>
TTITLE7=畑亜貴/微痛の楽園<instrumental>
TTITLE8=畑亜貴/支配樹と鍵<instrumental>
TTITLE9=剣持満/HAPPY DAYS<instrumental>
EXTD=
EXTT0=
EXTT1=
EXTT2=
EXTT3=
EXTT4=
EXTT5=
EXTT6=
EXTT7=
EXTT8=
EXTT9=
PLAYORDER=
